<?xml version="1.0" encoding="utf-8"?>
<!-- Generator: Adobe Illustrator 25.3.1, SVG Export Plug-In . SVG Version: 6.00 Build 0)  -->
<svg version="1.1" id="Layer_1" xmlns="http://www.w3.org/2000/svg" xmlns:xlink="http://www.w3.org/1999/xlink" x="0px" y="0px"
	 viewBox="0 0 3535.5 3094.1" style="enable-background:new 0 0 3535.5 3094.1;" xml:space="preserve">
<style type="text/css">
	.st0{fill:#FFFFFF;}
	.st1{fill:#FFFFFF;stroke:#000000;stroke-width:0.1;stroke-miterlimit:10;}
</style>
<path class="st0" d="M1771,3092.7c-300.7,5.9-601.4-12.1-899.2-53.9c-209.8-28.5-417.3-69.8-613.1-158.5
	C43.3,2782.7-20.1,2612.6,5.3,2389.4c37.7-331.7,174.1-629.8,325.8-921.2c217.3-417.3,480.5-802.4,818.5-1132.8
	c92.9-91.1,195.8-171.4,306.7-239.4c210-128.8,417.7-127.4,627.7,0.9c229.2,140,411,330.7,578,536.7
	c323.4,398.8,581.2,836.1,763,1316.2c62.9,166.4,112.7,337.5,110.5,519.1c-2.6,221.8-84.8,343.2-290.2,428
	c-184.7,76.2-378.7,115.5-574.9,141.6C2372.1,3078.2,2072.3,3099.9,1771,3092.7L1771,3092.7z M1768.5,1546.2h559.2
	c128.3,0,180.2,44.5,188.2,172.4c19.6,316.1,39,632.3,11.2,949.1c-4.4,49.8-4.4,100.1-7.2,150.1c-1.8,30.7,8.1,42.9,41.8,39.2
	c203.4-22.1,403.9-58.1,596-130.5c154.1-58.1,189.2-115.6,184.6-281.6c-4.4-160.9-52.1-311.7-109-458.7
	c-177-458.7-428-874.9-738.1-1255.3c-144.9-177-302.5-341-498.3-464.7c-153.5-97.1-301.7-96.6-454.8,0
	c-148.6,94.1-276.7,211-392.2,341.8c-354.3,400.5-637.1,859-835.9,1355.3c-59.1,144.5-98.9,296.2-118.4,451.1
	c-18,148.1,20,235.7,136.8,289c206.4,94,427.6,128.8,650.8,153.9c33.7,3.8,40.8-13.2,38.5-43.4c-28.8-367.8-27.1-737.3,5.3-1104.8
	c10-112.7,58.5-162.4,170.5-162.7C1387.7,1545.8,1578.1,1546.3,1768.5,1546.2L1768.5,1546.2L1768.5,1546.2z"/>
<circle class="st1" cx="2234.6" cy="1080.3" r="97.9"/>
<circle class="st1" cx="1309" cy="1080.3" r="97.9"/>
</svg>
